<svg xmlns="http://www.w3.org/2000/svg" version="1.0" width="820.000000pt" height="427.000000pt" viewBox="0 0 820.000000 427.000000" preserveAspectRatio="xMidYMid meet">

<g transform="translate(0.000000,427.000000) scale(0.100000,-0.100000)" fill="#000000" stroke="none">
<path d="M3485 3698 c-48 -84 -104 -182 -125 -218 -21 -36 -49 -85 -63 -110 -14 -25 -77 -137 -141 -249 -64 -112 -115 -204 -114 -205 2 0 14 -7 27 -14 13 -8 49 -15 80 -17 55 -4 55 -4 19 7 -37 11 -46 25 -29 43 5 6 20 30 33 55 14 25 89 158 168 295 79 138 154 270 168 295 14 25 49 87 79 138 30 51 53 95 51 96 -21 16 -54 36 -59 36 -4 0 -46 -69 -94 -152z"/>
<path d="M4427 3212 c-16 -18 -95 -144 -142 -227 -35 -60 -90 -155 -121 -205 -15 -25 -27 -49 -25 -54 1 -5 -6 -6 -16 -3 -10 2 -66 19 -124 36 -125 37 -291 72 -283 60 2 -5 21 -11 42 -15 91 -15 246 -57 294 -79 73 -33 52 -31 -54 6 -49 16 -94 29 -99 27 -5 -2 27 -36 71 -77 l81 -74 64 7 c52 5 64 4 69 -9 7 -20 5 -20 -129 -40 -60 -9 -128 -21 -150 -27 -22 -6 -47 -12 -55 -12 -9 -1 -20 -4 -25 -8 -6 -3 -23 -8 -40 -12 -16 -4 -73 -21 -125 -38 -52 -17 -103 -31 -112 -30 -10 0 -18 -3 -18 -8 0 -4 -24 -14 -52 -20 -29 -7 -58 -17 -65 -22 -7 -5 -22 -7 -34 -3 -13 5 -19 3 -15 -3 6 -11 -25 -22 -62 -22 -15 0 -21 -4 -16 -12 4 -6 3 -8 -3 -5 -5 3 -27 1 -49 -5 -42 -11 -252 -56 -296 -63 -25 -4 -27 -2 -17 22 5 14 7 28 5 31 -3 3 -10 -6 -15 -20 -5 -13 -15 -29 -23 -36 -15 -12 -714 -89 -724 -79 -2 1 70 24 159 50 89 26 185 54 212 62 49 15 49 15 10 11 -22 -3 -166 -27 -320 -54 -330 -59 -391 -66 -490 -57 l-75 7 19 27 c26 37 131 153 131 145 0 -5 -80 -104 -100 -124 -39 -39 -38 -40 81 -38 94 2 100 3 37 5 -43 2 -78 6 -78 9 0 4 34 44 76 90 42 46 77 90 78 98 2 16 95 126 177 207 36 37 64 57 80 57 13 0 130 25 259 56 129 30 259 58 287 62 52 6 80 24 69 43 -3 5 -14 7 -24 5 -204 -44 -367 -84 -494 -121 l-157 -46 -73 -76 c-40 -42 -103 -109 -141 -149 -76 -82 -88 -89 -23 -12 26 31 49 70 56 98 16 59 38 102 51 102 5 0 15 5 22 10 7 6 21 18 32 26 19 15 19 15 -5 9 -14 -4 -60 -23 -102 -42 -73 -34 -91 -50 -307 -268 l-230 -232 -146 -47 c-189 -61 -379 -141 -422 -179 -19 -16 -41 -44 -50 -61 -19 -36 -53 -160 -53 -194 0 -15 -9 -26 -24 -32 -27 -10 -51 -46 -38 -54 5 -3 25 1 46 8 22 8 34 16 27 20 -19 12 -12 28 12 24 16 -2 22 -9 21 -28 -1 -35 -14 -60 -30 -60 -16 0 -18 -37 -4 -75 11 -28 57 -81 48 -54 -5 13 9 14 113 11 119 -4 119 -4 119 19 0 40 40 173 60 199 16 21 15 15 -5 -36 -14 -33 -30 -93 -37 -133 l-12 -72 39 -36 c39 -34 39 -35 12 -31 -15 3 -27 1 -27 -3 0 -5 20 -9 44 -9 l43 0 7 -72 c8 -94 28 -168 59 -221 35 -59 54 -74 122 -92 161 -42 299 5 359 123 7 15 24 57 36 94 l23 68 150 0 151 0 31 -29 c36 -34 74 -48 155 -57 92 -10 160 2 226 42 l58 35 103 -7 102 -7 10 -30 c16 -43 14 -56 -12 -91 -30 -40 -67 -113 -67 -131 0 -28 35 -15 58 21 24 36 25 37 75 30 29 -3 75 -10 102 -16 72 -13 174 -11 217 4 21 8 35 9 32 4 -4 -6 3 -5 15 2 12 6 19 14 17 19 -3 4 4 20 15 37 11 16 33 55 50 87 l30 57 166 -2 167 -3 16 -55 c38 -125 107 -237 202 -326 83 -78 132 -94 301 -101 263 -12 385 41 503 218 43 66 124 242 124 272 0 22 45 27 251 27 114 0 190 4 194 10 3 6 37 10 75 10 65 0 68 -1 74 -26 19 -76 77 -172 143 -237 77 -76 94 -88 143 -104 145 -48 353 -42 464 14 102 51 191 151 238 266 29 70 34 77 60 77 29 0 30 1 43 83 3 21 20 86 36 144 24 82 28 107 18 114 -7 4 -60 10 -118 13 -58 4 -117 8 -131 11 -24 3 -26 0 -37 -53 -5 -32 -23 -87 -37 -122 -15 -36 -31 -80 -36 -98 -4 -19 -10 -36 -13 -38 -11 -11 -199 9 -212 22 -11 12 -19 12 -47 0 -34 -14 -121 -8 -620 38 -87 8 -168 12 -180 9 -22 -4 -22 -3 5 21 15 14 26 26 24 26 -2 0 -24 -7 -49 -16 -41 -14 -50 -14 -75 -1 -63 33 -94 102 -84 190 l7 57 -50 0 c-57 0 -99 17 -104 42 -7 35 64 42 415 43 183 0 333 3 333 6 0 12 -29 31 -39 25 -5 -3 -159 -9 -342 -12 -184 -3 -337 -8 -341 -10 -5 -3 -8 -1 -8 4 0 17 55 33 137 39 45 3 80 10 77 14 -3 5 -16 9 -30 9 -15 0 -24 6 -24 16 0 13 27 128 61 256 6 23 17 39 30 43 12 4 30 16 40 26 10 10 27 19 37 19 10 0 25 9 35 20 9 11 24 20 32 20 9 0 13 5 9 11 -3 6 -17 9 -30 6 -13 -2 -24 0 -24 4 0 22 -20 5 -31 -26 -7 -19 -17 -35 -21 -35 -12 0 -11 4 17 73 24 59 25 63 8 75 -17 12 -16 14 7 32 33 25 87 36 251 52 137 13 163 14 634 11 149 -1 278 -2 288 -2 9 0 17 4 17 10 0 5 -20 9 -45 9 -25 0 -61 6 -80 14 -20 9 -35 11 -37 5 -2 -6 -26 -5 -63 5 l-60 14 60 -4 c44 -3 53 -2 34 5 -36 12 -252 14 -245 3 3 -5 29 -12 57 -16 107 -14 34 -17 -128 -5 -92 7 -197 11 -233 10 -59 -2 -68 0 -90 24 -45 49 -87 63 -171 58 -49 -3 -79 -1 -84 6 -3 6 -16 11 -28 11 -12 0 -34 6 -49 14 -15 8 -36 12 -46 9 -11 -2 -23 1 -27 7 -5 9 -1 10 14 5 13 -4 21 -2 21 5 0 6 -18 10 -42 10 -24 -1 -72 4 -108 9 -39 6 -147 8 -270 4 -323 -10 -343 -9 -347 5 -3 8 1 10 13 5 11 -4 15 -3 10 5 -4 6 8 33 27 59 18 26 48 75 66 108 18 33 68 119 112 191 43 71 79 139 79 151 0 24 -21 44 -77 72 -51 26 -56 26 -76 3z m-254 -526 c10 -1 25 -10 35 -20 15 -15 13 -15 -28 2 -73 31 -76 33 -50 26 14 -3 33 -7 43 -8z m64 -152 c-3 -3 -12 -4 -19 -1 -8 3 -5 6 6 6 11 1 17 -2 13 -5z m252 -4 c133 -7 167 -12 183 -27 10 -9 29 -18 41 -19 53 -3 87 -17 87 -35 0 -9 6 -19 13 -22 6 -2 1 -3 -13 -1 -14 2 -43 -1 -65 -6 -31 -7 -18 -8 55 -5 52 2 88 0 80 -5 -16 -8 -330 -33 -337 -26 -2 2 33 8 79 14 l83 9 -70 3 c-56 2 -63 4 -35 9 41 8 -123 23 -285 26 -93 2 -193 16 -217 31 -22 14 32 32 116 39 55 5 83 11 75 16 -18 11 0 11 210 -1z m-542 -46 c-3 -3 -12 -4 -19 -1 -8 3 -5 6 6 6 11 1 17 -2 13 -5z m1406 -21 c-7 -2 -19 -2 -25 0 -7 3 -2 5 12 5 14 0 19 -2 13 -5z m594 -29 c-3 -3 -12 -4 -19 -1 -8 3 -5 6 6 6 11 1 17 -2 13 -5z m-4199 -251 c-10 -2 -26 -2 -35 0 -10 3 -2 5 17 5 19 0 27 -2 18 -5z m1007 2 c-9 -4 -742 -109 -830 -119 -22 -2 -76 -10 -120 -16 -75 -12 -232 -8 -282 6 -21 6 -21 6 5 32 15 15 39 37 54 50 l26 24 103 -22 c57 -12 105 -23 107 -25 2 -2 -1 -12 -7 -23 -10 -20 -10 -20 29 1 43 24 51 37 23 37 -14 0 -15 2 -4 9 7 5 11 13 7 19 -12 20 107 30 149 12 15 -6 8 -9 -27 -9 -26 -1 -50 -6 -54 -12 -4 -7 -10 -7 -16 -1 -6 6 -17 8 -25 5 -11 -4 -10 -8 4 -19 14 -11 15 -15 5 -22 -26 -18 15 -35 70 -30 53 6 82 27 71 54 -3 8 -1 14 5 14 6 0 93 7 194 15 259 21 546 32 513 20z m-737 -62 c6 -20 -55 -16 -62 3 -5 12 1 15 26 12 17 -2 33 -9 36 -15z m1815 -30 c-7 -2 -19 -2 -25 0 -7 3 -2 5 12 5 14 0 19 -2 13 -5z m90 0 c-13 -2 -33 -2 -45 0 -13 2 -3 4 22 4 25 0 35 -2 23 -4z m163 -54 c32 -6 81 -22 108 -35 36 -18 47 -21 42 -9 -3 8 -2 15 3 15 13 0 33 -28 27 -38 -3 -5 6 -24 20 -43 28 -38 67 -109 59 -109 -2 0 -11 13 -19 28 -29 56 -105 129 -156 151 -97 42 -353 38 -495 -6 -162 -50 -251 -159 -380 -463 l-40 -95 -75 -6 c-124 -10 -230 -10 -230 1 0 6 53 10 138 10 75 0 142 4 147 8 6 4 26 43 44 87 62 144 158 309 217 370 16 17 31 39 32 50 2 11 11 28 19 37 13 15 17 15 30 3 8 -8 19 -15 24 -15 6 0 3 7 -5 16 -24 23 -19 27 9 8 17 -11 29 -13 38 -6 51 41 312 65 443 41z m-2346 -128 c0 -5 -46 -14 -102 -20 -57 -7 -114 -14 -128 -17 -14 -3 -21 -2 -17 3 6 6 136 29 240 42 4 1 7 -3 7 -8z m2341 -110 c67 -35 120 -109 150 -204 12 -37 19 -70 17 -73 -3 -2 -12 22 -21 53 -22 78 -73 160 -124 199 -143 109 -323 -7 -374 -239 -13 -60 -29 -85 -29 -45 0 13 6 46 14 73 58 220 212 319 367 236z m122 -8 c40 -42 86 -151 104 -244 38 -200 -20 -424 -141 -544 -71 -71 -115 -90 -201 -90 -83 1 -129 21 -194 86 -85 85 -136 216 -146 370 -10 145 37 331 96 385 16 15 14 5 -11 -54 -41 -96 -60 -182 -60 -274 0 -230 104 -420 255 -463 89 -26 164 -3 241 74 165 164 187 491 50 723 -38 63 -35 74 7 31z m-123 -26 c37 -23 63 -49 82 -82 9 -18 8 -17 -14 3 -73 66 -213 31 -248 -62 -10 -27 -9 -28 7 -15 10 7 29 24 43 37 29 29 70 46 80 35 12 -13 20 -132 10 -138 -6 -3 -10 -13 -10 -21 0 -19 42 -60 59 -56 7 2 11 -2 9 -10 -6 -18 -38 -23 -38 -5 0 17 -34 49 -43 40 -4 -3 -7 5 -8 18 0 13 -3 18 -6 12 -6 -16 -23 -17 -23 -3 0 6 11 15 25 20 31 12 33 30 3 22 -16 -4 -19 -2 -13 9 8 12 6 12 -8 0 -24 -19 -21 2 3 24 20 18 28 55 12 55 -5 0 -23 -14 -40 -31 -18 -18 -30 -24 -26 -15 12 32 -6 15 -26 -24 -27 -52 -25 -60 9 -60 32 0 54 -20 24 -21 -10 0 -3 -5 16 -12 32 -11 34 -15 35 -61 0 -40 -4 -52 -21 -63 -20 -14 -24 -13 -46 9 -14 14 -27 42 -31 66 -4 28 -10 40 -17 36 -20 -12 -5 -144 21 -187 26 -44 44 -38 60 24 6 22 17 39 25 39 20 0 8 -59 -16 -83 -11 -10 -19 -23 -19 -29 0 -6 -11 -8 -25 -6 -30 6 -32 -8 -10 -55 15 -30 15 -31 -1 -12 -33 40 -67 129 -74 194 -12 107 13 234 58 299 33 48 37 58 13 38 -28 -25 -78 -127 -93 -191 -18 -79 -13 -147 17 -225 15 -38 31 -72 36 -76 5 -3 9 -10 9 -16 0 -6 -7 -5 -17 3 -16 13 -17 12 -4 -3 7 -10 17 -16 21 -13 4 3 10 -2 14 -10 3 -8 27 -28 53 -45 61 -38 104 -39 152 -3 l36 26 -24 -26 c-55 -60 -156 -71 -225 -24 -60 40 -115 123 -131 195 -10 49 11 39 29 -14 20 -59 63 -134 77 -134 6 0 1 15 -11 33 -57 85 -64 113 -63 257 l2 135 -17 -50 -17 -50 -3 38 c-4 47 19 119 57 179 69 109 177 143 271 85z m-2350 3 c0 -5 -12 -10 -27 -11 -16 0 -66 -4 -113 -8 -84 -8 -110 -6 -110 9 0 5 17 6 38 4 29 -4 151 5 205 15 4 0 7 -3 7 -9z m-413 -50 c-3 -11 -1 -20 4 -20 14 0 46 -71 79 -172 35 -106 33 -98 20 -98 -5 0 -10 10 -11 23 0 12 -9 45 -19 72 l-18 50 -2 -50 c0 -29 -7 -58 -16 -70 -16 -19 -16 -19 -11 10 2 17 7 39 11 50 5 13 -3 8 -23 -14 -29 -33 -30 -36 -13 -55 14 -16 15 -19 1 -14 -13 5 -16 -2 -17 -34 -2 -32 1 -39 13 -34 8 3 15 1 15 -4 0 -6 -7 -10 -15 -10 -17 0 -21 -55 -5 -65 6 -3 10 1 10 9 0 8 4 17 9 21 6 3 9 -13 8 -37 -2 -39 0 -43 21 -42 29 1 28 -3 -13 -42 -40 -40 -54 -42 -84 -10 -36 38 -67 166 -41 166 6 0 10 8 10 18 0 32 27 -22 55 -111 10 -31 24 -62 32 -68 18 -15 16 -5 -6 39 -10 20 -22 56 -26 79 -4 24 -11 45 -16 49 -5 3 -9 14 -9 25 0 22 -24 52 -34 42 -3 -4 -6 11 -7 33 l-1 39 -9 -39 c-14 -59 -23 -58 -16 1 11 96 67 193 111 193 17 0 15 -4 -12 -20 -32 -19 -72 -86 -72 -120 0 -8 10 5 21 30 27 61 47 80 81 80 33 0 36 -10 8 -35 -23 -21 -63 -121 -57 -144 5 -19 8 -12 26 56 6 23 23 55 36 71 14 17 25 35 25 40 0 19 -42 82 -62 93 -15 8 -17 13 -7 25 17 20 32 17 26 -6z m409 -9 c-4 -5 -56 -13 -116 -16 l-110 -8 0 -46 c0 -73 2 -74 134 -70 64 2 116 1 116 -2 0 -3 -53 -9 -117 -12 -99 -6 -120 -4 -129 8 -15 20 -28 116 -17 126 4 4 51 12 103 17 133 13 142 13 136 3z m2388 -35 c29 -12 76 -62 76 -81 0 -4 -16 7 -35 24 -52 46 -77 41 -32 -7 l22 -24 -27 12 c-17 8 -29 24 -33 41 -4 16 -11 29 -16 29 -5 0 -9 5 -9 10 0 14 15 13 54 -4z m310 -105 c14 -52 34 -112 45 -135 25 -49 21 -58 -8 -17 -18 25 -81 235 -81 266 1 23 20 -26 44 -114z m-265 -35 c-17 -17 -26 -21 -31 -13 -13 20 -9 25 20 30 15 2 29 5 31 6 2 0 -7 -10 -20 -23z m-49 -6 c0 -5 -7 -10 -15 -10 -8 0 -15 5 -15 10 0 6 7 10 15 10 8 0 15 -4 15 -10z m-2940 -92 c-16 -162 23 -314 87 -339 35 -13 79 13 104 63 25 50 41 101 29 93 -4 -3 -11 2 -14 11 -4 12 -2 15 9 10 8 -3 15 -2 15 3 0 12 -26 32 -32 25 -3 -3 -9 -1 -13 5 -3 6 0 11 7 11 8 0 6 5 -5 11 -9 6 -14 15 -11 21 4 7 18 -2 34 -22 l27 -33 7 56 7 57 92 -2 92 -2 -85 -5 -85 -6 -7 -63 c-17 -151 -81 -262 -152 -262 -43 0 -76 37 -103 112 -20 57 -25 238 -10 312 13 62 17 36 7 -56z m3020 71 c0 -14 -17 -10 -23 5 -4 10 -1 13 9 9 7 -3 14 -9 14 -14z m-96 -8 c3 -5 -1 -11 -9 -15 -9 -3 -15 0 -15 9 0 16 16 20 24 6z m-864 -21 c0 -5 -2 -10 -4 -10 -3 0 -8 5 -11 10 -3 6 -1 10 4 10 6 0 11 -4 11 -10z m-395 -11 c-7 -10 15 -9 -375 -13 -352 -3 -353 0 -5 13 269 11 386 11 380 0z m1340 1 c-3 -5 -11 -10 -16 -10 -6 0 -7 5 -4 10 3 6 11 10 16 10 6 0 7 -4 4 -10z m-1310 -40 c12 -5 -90 -8 -245 -7 l-265 1 240 6 c132 3 242 6 245 7 3 1 14 -2 25 -7z m-1068 -17 c-20 -2 -52 -2 -70 0 -17 2 0 4 38 4 39 0 53 -2 32 -4z m346 0 c-57 -2 -149 -2 -205 0 -57 1 -11 3 102 3 113 0 159 -2 103 -3z m2048 -20 c8 -9 9 -14 3 -10 -7 4 -15 0 -18 -9 -8 -22 -25 -8 -19 16 6 24 16 25 34 3z m2017 -18 c36 -12 66 -15 95 -11 23 4 48 8 55 8 6 1 12 5 12 10 0 4 5 8 10 8 11 0 13 -51 4 -99 l-6 -31 -130 0 -129 0 7 48 c3 26 10 54 14 62 4 8 5 22 3 30 -3 10 -2 11 4 4 4 -7 32 -20 61 -29z m-2064 10 c-4 -8 -10 -15 -15 -15 -5 0 -9 7 -9 15 0 8 7 15 15 15 9 0 12 -6 9 -15z m-2734 -15 c0 -5 -4 -10 -10 -10 -5 0 -10 5 -10 10 0 6 5 10 10 10 6 0 10 -4 10 -10z m2682 -39 c26 -27 36 -45 32 -56 -7 -16 -8 -16 -16 -1 -8 14 -12 15 -25 4 -14 -11 -15 -10 -9 10 9 26 -15 51 -49 52 -20 1 -20 1 -1 15 11 8 22 15 24 15 3 0 22 -18 44 -39z m143 -66 c-33 -122 -127 -231 -217 -250 -112 -25 -235 63 -290 207 -22 58 -22 69 -4 62 7 -3 19 -24 25 -46 25 -82 96 -164 167 -194 128 -54 267 54 314 243 8 29 16 51 18 48 3 -3 -3 -34 -13 -70z m-2997 -81 c6 -12 26 -28 44 -37 33 -17 33 -17 6 -17 -47 0 -99 91 -97 169 1 31 3 28 18 -29 10 -36 23 -74 29 -86z m2817 116 c3 -5 -1 -10 -9 -10 -9 0 -16 5 -16 10 0 6 4 10 9 10 6 0 13 -4 16 -10z m117 -64 c7 4 8 2 4 -5 -14 -21 -34 6 -27 37 6 27 6 27 9 -6 2 -20 7 -30 14 -26z m-92 3 c0 -10 -21 -12 -44 -3 -27 10 -18 21 14 16 17 -2 30 -8 30 -13z m60 -35 c0 -16 -17 -27 -17 -11 0 7 -4 21 -9 32 -7 18 -6 18 9 6 9 -7 17 -19 17 -27z m-85 -34 c46 -6 48 -7 22 -14 -30 -9 -117 17 -117 35 0 5 10 4 23 -3 12 -7 45 -15 72 -18z m-1295 -107 c0 -20 -17 -50 -24 -43 -2 3 -2 17 1 33 6 30 23 37 23 10z"/>
<path d="M4648 2423 c7 -3 16 -2 19 1 4 3 -2 6 -13 5 -11 0 -14 -3 -6 -6z"/>
<path d="M3550 1955 c-14 -8 -20 -14 -15 -14 6 0 21 6 35 14 14 8 21 14 15 14 -5 0 -21 -6 -35 -14z"/>
<path d="M3810 1625 c-7 -9 -11 -17 -9 -20 3 -2 10 5 17 15 14 24 10 26 -8 5z"/>
<path d="M3890 1490 c20 -13 33 -13 25 0 -3 6 -14 10 -23 10 -15 0 -15 -2 -2 -10z"/>
<path d="M3927 1463 c-12 -12 -7 -60 7 -72 12 -10 17 -8 26 10 18 33 -10 86 -33 62z"/>
<path d="M1270 1396 c0 -9 5 -16 10 -16 6 0 10 4 10 9 0 6 -4 13 -10 16 -5 3 -10 -1 -10 -9z"/>
<path d="M1231 1335 c-2 -34 18 -91 38 -109 18 -16 18 -15 -1 24 -12 23 -24 56 -28 73 -5 19 -8 24 -9 12z"/>
<path d="M1280 1192 c0 -5 7 -13 16 -16 10 -4 14 -1 12 6 -5 15 -28 23 -28 10z"/>
<path d="M2710 2879 c-64 -10 -162 -37 -140 -38 8 -1 50 6 93 14 96 18 147 19 147 3 0 -7 11 -42 24 -78 14 -36 46 -125 72 -198 26 -72 49 -130 51 -128 2 2 -19 68 -47 147 -27 79 -50 145 -50 147 0 2 6 0 13 -3 6 -4 5 -1 -4 7 -21 18 -53 103 -46 123 7 17 -21 18 -113 4z"/>
<path d="M2963 2863 c31 -2 83 -2 115 0 31 2 5 3 -58 3 -63 0 -89 -1 -57 -3z"/>
<path d="M2868 2853 c7 -3 16 -2 19 1 4 3 -2 6 -13 5 -11 0 -14 -3 -6 -6z"/>
<path d="M3208 2833 c22 -16 58 -44 79 -63 21 -19 58 -52 83 -72 25 -20 79 -68 120 -108 73 -69 76 -71 115 -64 67 11 68 16 12 61 -29 23 -84 68 -123 100 -40 32 -95 76 -124 98 -28 22 -61 48 -72 58 -15 12 -38 17 -76 17 l-55 0 41 -27z"/>
<path d="M3338 2843 c12 -2 30 -2 40 0 9 3 -1 5 -23 4 -22 0 -30 -2 -17 -4z"/>
<path d="M2528 2833 c7 -3 16 -2 19 1 4 3 -2 6 -13 5 -11 0 -14 -3 -6 -6z"/>
<path d="M3448 2833 c6 -2 18 -2 25 0 6 3 1 5 -13 5 -14 0 -19 -2 -12 -5z"/>
<path d="M2743 2583 c-23 -120 -39 -220 -38 -222 2 -1 39 4 82 12 43 8 67 15 53 16 -14 0 -45 -4 -68 -8 l-44 -9 5 32 c2 17 19 109 38 204 21 114 29 176 23 182 -7 7 -24 -64 -51 -207z"/>
<path d="M3778 2686 l66 -114 35 5 c20 3 39 9 43 12 4 4 -6 27 -23 51 -16 25 -41 66 -54 92 -22 42 -29 47 -75 57 -28 6 -53 11 -55 11 -2 0 26 -51 63 -114z"/>
<path d="M2906 2743 c4 -15 17 -59 30 -97 13 -38 21 -72 19 -76 -3 -5 2 -15 10 -24 9 -8 25 -41 36 -73 11 -32 23 -60 27 -63 4 -4 32 -2 62 3 47 8 52 11 37 22 -9 7 -17 19 -17 26 0 8 -13 30 -30 49 -16 19 -29 43 -30 52 0 22 -17 32 -24 16 -3 -7 -3 -3 0 9 3 13 -2 32 -11 45 l-17 23 7 -25 c8 -28 6 -27 -19 14 -12 19 -14 26 -5 21 8 -3 4 2 -8 13 -13 11 -23 27 -23 36 0 9 -4 16 -9 16 -5 0 -7 -10 -5 -22 4 -23 4 -23 -6 0 -5 13 -8 27 -6 30 2 4 -3 13 -10 20 -13 12 -14 9 -8 -15z"/>
<path d="M2836 2562 c14 -9 25 -52 13 -52 -6 0 -5 -9 2 -21 6 -12 9 -30 6 -40 -3 -12 0 -19 10 -19 8 0 17 -9 20 -20 3 -12 11 -19 17 -17 12 5 12 9 1 42 -4 11 4 3 16 -17 34 -57 49 -51 28 11 -13 35 -44 59 -53 38 -3 -6 -2 1 1 17 4 18 2 27 -4 23 -5 -3 -17 9 -26 28 -9 19 -22 35 -29 35 -9 0 -10 -3 -2 -8z"/>
<path d="M2766 2475 c-9 -26 -7 -32 5 -12 6 10 9 21 6 23 -2 3 -7 -2 -11 -11z"/>
<path d="M2785 2450 c3 -5 17 -10 31 -10 13 0 24 5 24 10 0 6 -14 10 -31 10 -17 0 -28 -4 -24 -10z"/>
<path d="M2030 2339 c-18 -49 -29 -93 -26 -96 8 -8 8 -9 33 67 46 140 41 163 -7 29z"/>
<path d="M5995 2361 c-154 -3 -286 -10 -294 -15 -18 -11 -209 -8 -251 4 -23 7 -30 5 -30 -6 0 -8 -4 -14 -8 -14 -5 0 -9 -14 -10 -30 0 -17 -4 -40 -7 -51 -9 -29 8 -38 75 -41 50 -1 51 -2 13 -5 -24 -2 -43 -7 -43 -10 0 -3 11 -14 25 -25 14 -11 35 -38 46 -60 12 -23 29 -49 39 -60 15 -16 18 -17 23 -4 4 9 13 16 20 16 8 0 20 13 27 29 6 16 21 38 32 48 20 18 21 18 14 -4 -8 -26 8 -31 30 -9 12 13 12 15 -4 19 -14 4 -13 6 6 12 l23 8 -27 13 c-14 8 -45 14 -67 14 -22 0 -38 2 -35 5 3 3 60 3 127 -1 117 -7 121 -8 115 -28 -11 -38 -9 -41 31 -41 33 0 41 4 43 22 2 16 -3 23 -20 26 -13 2 4 4 37 4 42 1 51 -1 30 -6 -35 -7 -48 -46 -18 -54 14 -4 13 -5 -4 -6 -13 0 -23 -5 -23 -10 0 -5 -3 -16 -6 -25 -5 -13 1 -16 34 -16 27 0 42 5 46 16 9 22 8 24 -9 24 -8 0 -15 4 -15 9 0 5 8 8 18 7 12 -1 18 7 20 27 3 26 5 27 63 27 57 0 59 -1 49 -21 -18 -32 -5 -51 32 -47 35 3 51 33 26 49 -8 6 4 8 32 8 35 -1 39 -3 20 -8 -15 -4 -26 -15 -28 -28 -3 -17 3 -22 25 -26 27 -4 27 -4 -4 -6 -19 0 -33 -7 -34 -13 -1 -14 -4 -31 -15 -65 -6 -21 -3 -23 35 -23 22 0 41 -3 41 -8 0 -4 -20 -6 -45 -4 -40 4 -45 2 -45 -16 0 -13 8 -22 23 -25 20 -4 19 -4 -4 -6 -25 -1 -45 -31 -31 -45 12 -13 62 -5 71 12 10 16 10 15 10 -3 0 -11 -4 -29 -9 -40 -7 -17 -9 -17 -9 -2 -1 21 -59 24 -80 5 -11 -11 -13 -8 -9 12 3 14 9 33 13 43 6 14 1 17 -33 17 -31 0 -41 -4 -45 -20 -4 -17 0 -20 26 -20 17 0 28 -3 24 -6 -7 -7 -157 -7 -164 -1 -2 2 1 16 7 31 10 27 10 27 -33 24 -35 -2 -43 -7 -45 -25 -2 -13 -7 -23 -11 -23 -5 0 -6 11 -3 25 3 18 0 25 -11 25 -9 0 -19 5 -23 11 -4 7 0 9 14 5 15 -5 24 -1 31 13 16 29 14 31 -21 31 -45 0 -59 -11 -52 -40 3 -14 8 -34 11 -46 5 -24 -61 -99 -78 -88 -7 4 -3 14 10 28 16 17 19 30 14 59 -4 27 -10 37 -20 33 -8 -3 -11 -2 -8 3 12 20 16 139 5 146 -24 15 -34 -13 -15 -42 18 -28 18 -28 -2 -10 -11 9 -28 17 -39 16 -17 0 -17 -1 3 -9 23 -9 46 -43 37 -53 -3 -3 -13 -3 -22 0 -10 4 -13 2 -8 -5 4 -7 1 -12 -10 -12 -11 0 -15 6 -11 20 4 17 2 18 -14 9 -20 -10 -23 -7 -20 24 1 9 -3 17 -8 17 -6 0 -11 -13 -11 -29 0 -29 12 -38 77 -56 28 -8 23 -39 -7 -43 -16 -3 -21 0 -18 10 4 9 -1 14 -13 15 -31 3 -22 -24 17 -46 23 -14 34 -27 31 -36 -3 -7 -1 -15 5 -17 6 -2 8 -9 4 -16 -10 -17 -46 3 -78 45 -20 26 -25 40 -17 49 7 8 7 14 -1 19 -5 3 -10 3 -10 -1 0 -4 -9 1 -20 11 -11 10 -20 24 -20 30 0 15 -28 28 -41 19 -5 -3 -9 -19 -9 -35 0 -18 4 -28 10 -24 13 8 13 1 -4 -39 -17 -41 -51 -66 -91 -66 -40 0 -68 21 -89 65 -16 33 -44 51 -32 20 3 -8 1 -15 -4 -15 -4 0 -11 -12 -14 -27 l-6 -28 -103 -2 c-56 -1 -133 -3 -172 -4 -70 -3 -70 -3 25 -9 62 -4 77 -7 43 -8 -72 -3 -79 -22 -9 -22 31 0 56 -4 56 -9 0 -6 -33 -7 -77 -4 -43 3 -75 3 -72 -1 3 -3 64 -8 135 -11 71 -2 116 -1 99 4 -29 7 -29 7 13 12 33 4 53 -1 84 -18 22 -13 42 -23 45 -23 11 0 -11 22 -31 31 -15 7 -8 8 28 4 51 -5 136 -42 136 -58 0 -6 5 -5 13 1 16 13 267 16 267 3 0 -5 -17 -12 -37 -14 -21 -2 12 -5 72 -6 61 -2 191 -5 289 -7 99 -2 182 -7 185 -10 3 -3 -176 -2 -399 2 -223 3 -402 3 -398 -1 9 -10 71 -13 588 -25 353 -9 468 -15 555 -30 61 -11 126 -22 145 -25 32 -5 33 -4 7 4 -16 5 -34 14 -40 19 -10 8 -126 34 -162 37 -5 0 -20 4 -32 8 -27 10 -31 31 -5 23 9 -3 38 -8 65 -12 26 -3 47 -10 47 -15 0 -5 28 -9 63 -8 40 0 55 3 42 8 -11 4 35 8 103 8 80 0 127 4 134 11 9 9 6 12 -11 12 -12 0 -20 4 -17 8 2 4 -31 8 -75 7 -86 0 -111 16 -39 26 l45 6 -50 3 c-49 3 -49 3 -15 10 l35 7 -35 3 c-23 2 -11 6 35 10 l70 6 -80 3 c-57 2 -73 5 -55 11 l25 8 -25 1 c-41 2 -52 31 -34 93 24 81 63 162 84 176 25 15 126 31 223 34 72 2 77 3 77 24 0 27 -39 60 -91 76 -22 6 -39 15 -39 20 0 4 -3 7 -7 6 -5 -1 -28 4 -53 11 -67 20 -215 38 -236 30 -11 -4 -30 -8 -44 -8 -20 0 -22 2 -7 8 10 4 -11 7 -50 8 -37 1 -99 5 -138 8 -70 7 -70 7 -52 -13 18 -20 18 -20 -20 -16 -21 2 -121 8 -223 14 -411 23 -427 35 -63 46 134 4 240 11 237 15 -3 5 -20 8 -37 7 -18 -1 -158 -4 -312 -7z m650 -96 c121 -5 221 -18 232 -29 4 -3 -6 -6 -23 -5 -49 2 -153 -23 -159 -39 -4 -10 0 -12 12 -8 14 6 15 5 6 -5 -9 -9 -16 -9 -25 -1 -7 6 -38 20 -68 31 -48 18 -139 78 -100 66 8 -2 65 -7 125 -10z m-1099 -71 c-3 -9 -6 -20 -6 -25 0 -5 -4 -9 -9 -9 -4 0 -6 11 -3 25 2 14 9 25 14 25 6 0 7 -7 4 -16z m952 -33 c2 -6 8 -9 13 -6 10 7 73 -24 65 -32 -3 -3 -16 1 -29 10 -14 9 -33 14 -43 12 -11 -3 -33 7 -53 24 l-33 29 38 -13 c21 -7 40 -18 42 -24z m-88 19 c0 -5 -4 -10 -10 -10 -5 0 -10 5 -10 10 0 6 5 10 10 10 6 0 10 -4 10 -10z m-800 -35 c-7 -8 -17 -15 -23 -15 -6 0 -2 7 9 15 25 19 30 19 14 0z m667 -7 c-3 -8 -6 -5 -6 6 -1 11 2 17 5 13 3 -3 4 -12 1 -19z m143 -28 c0 -5 -7 -7 -15 -4 -8 4 -15 8 -15 10 0 2 7 4 15 4 8 0 15 -4 15 -10z m-150 -20 c0 -5 -4 -10 -10 -10 -5 0 -10 5 -10 10 0 6 5 10 10 10 6 0 10 -4 10 -10z m246 -15 c-3 -10 1 -15 13 -15 10 0 26 -9 36 -20 13 -15 22 -17 36 -10 30 17 65 -4 83 -49 20 -51 21 -91 2 -91 -12 0 -12 -7 -5 -36 8 -28 7 -41 -9 -67 -15 -27 -24 -32 -53 -30 -19 1 -55 2 -80 3 -63 1 -82 23 -93 113 -3 23 -1 35 4 32 6 -4 10 -14 10 -23 0 -13 2 -14 9 -3 12 19 3 46 -25 76 -25 27 -36 61 -12 37 20 -20 29 -14 22 16 -4 21 -3 24 5 12 6 -9 11 -10 11 -3 0 6 7 19 16 27 8 9 11 16 5 16 -6 0 -11 7 -11 15 0 9 9 15 21 15 15 0 19 -5 15 -15z m-171 -5 c3 -5 1 -10 -4 -10 -6 0 -11 5 -11 10 0 6 2 10 4 10 3 0 8 -4 11 -10z m35 -10 c0 -5 -2 -10 -4 -10 -3 0 -8 5 -11 10 -3 6 -1 10 4 10 6 0 11 -4 11 -10z m-126 -29 c-5 -4 -22 -4 -39 0 l-30 7 33 1 c18 0 32 6 33 14 0 9 2 8 6 -1 3 -8 1 -17 -3 -21z m156 19 c0 -5 -2 -10 -4 -10 -3 0 -8 5 -11 10 -3 6 -1 10 4 10 6 0 11 -4 11 -10z m-40 -40 c0 -5 -4 -10 -10 -10 -5 0 -10 5 -10 10 0 6 5 10 10 10 6 0 10 -4 10 -10z m-837 -24 c3 -8 0 -17 -7 -19 -10 -4 -12 1 -9 14 6 23 9 24 16 5z m811 -25 c4 -5 -3 -7 -14 -4 -23 6 -26 13 -6 13 8 0 17 -4 20 -9z m79 -44 c-3 -18 -9 -34 -13 -37 -4 -3 -10 -12 -13 -20 -6 -14 -3 22 7 75 5 27 5 27 16 20 5 -3 7 -20 3 -38z m-193 18 c0 -8 -7 -15 -15 -15 -8 0 -15 5 -15 11 0 5 5 7 10 4 6 -3 10 -1 10 4 0 6 2 11 5 11 3 0 5 -7 5 -15z m57 -71 c-3 -3 -12 -4 -19 -1 -8 3 -5 6 6 6 11 1 17 -2 13 -5z m-1110 -30 c-3 -3 -12 -4 -19 -1 -8 3 -5 6 6 6 11 1 17 -2 13 -5z m1063 -14 c0 -5 -5 -10 -11 -10 -5 0 -7 5 -4 10 3 6 8 10 11 10 2 0 4 -4 4 -10z m40 -4 c0 -3 -4 -8 -10 -11 -5 -3 -10 -1 -10 4 0 6 5 11 10 11 6 0 10 -2 10 -4z m473 -31 c-3 -9 -8 -14 -10 -11 -3 3 -2 9 2 15 9 16 15 13 8 -4z m-347 -40 c-4 -11 2 -15 22 -16 15 0 36 -4 47 -9 18 -8 18 -9 -5 -9 -14 -1 -42 2 -62 5 -33 6 -35 8 -25 25 14 23 32 25 23 4z m331 -7 c-3 -8 -6 -5 -6 6 -1 11 2 17 5 13 3 -3 4 -12 1 -19z m90 -24 c-3 -3 -12 -4 -19 -1 -8 3 -5 6 6 6 11 1 17 -2 13 -5z"/>
<path d="M6487 2034 c-9 -9 4 -35 14 -28 5 3 9 12 9 20 0 14 -12 19 -23 8z"/>
<path d="M6515 1993 c-4 -13 -11 -23 -16 -23 -5 0 -2 -12 8 -27 13 -19 14 -28 5 -31 -7 -2 -10 -13 -6 -26 3 -12 -2 -35 -10 -51 -14 -26 -14 -31 -1 -45 23 -22 51 -1 47 36 -8 93 -13 118 -22 129 -8 9 -7 14 1 17 6 2 9 13 6 23 -5 19 -5 19 -12 -2z"/>
<path d="M6590 2000 c0 -5 5 -10 10 -10 6 0 10 5 10 10 0 6 -4 10 -10 10 -5 0 -10 -4 -10 -10z"/>
<path d="M6610 1945 c0 -19 4 -35 8 -35 4 0 8 16 9 35 1 19 -3 35 -8 35 -5 0 -9 -16 -9 -35z"/>
<path d="M6548 1944 c-3 -5 -2 -29 2 -54 8 -49 11 -50 15 -5 3 33 -9 74 -17 59z"/>
<path d="M6641 1905 c0 -16 4 -39 9 -50 7 -16 9 -14 9 15 0 19 -4 42 -9 50 -7 11 -10 8 -9 -15z"/>
<path d="M6580 1891 c0 -17 5 -31 10 -31 6 0 10 11 10 24 0 14 -4 28 -10 31 -6 4 -10 -7 -10 -24z"/>
<path d="M6610 1860 c0 -15 -6 -32 -12 -38 -10 -10 -10 -15 2 -22 11 -7 11 -10 2 -10 -7 0 -10 -4 -7 -10 3 -5 15 -10 26 -10 15 0 19 7 19 38 0 21 -7 47 -15 58 -14 18 -14 18 -15 -6z"/>
<path d="M2648 2333 c6 -2 18 -2 25 0 6 3 1 5 -13 5 -14 0 -19 -2 -12 -5z"/>
<path d="M2598 2323 c7 -3 16 -2 19 1 4 3 -2 6 -13 5 -11 0 -14 -3 -6 -6z"/>
<path d="M5228 2283 c29 -2 74 -2 100 0 26 2 2 3 -53 3 -55 0 -76 -1 -47 -3z"/>
<path d="M5061 2264 c-18 -21 -6 -30 14 -10 9 9 31 16 48 16 l32 -1 -30 -14 c-22 -11 -24 -13 -6 -9 13 3 72 6 132 5 67 0 111 4 115 11 5 7 -26 9 -100 6 -58 -2 -106 0 -106 4 0 15 -85 8 -99 -8z"/>
<path d="M5238 2233 c17 -2 47 -2 65 0 17 2 3 4 -33 4 -36 0 -50 -2 -32 -4z"/>
<path d="M5173 2203 c20 -2 54 -2 75 0 20 2 3 4 -38 4 -41 0 -58 -2 -37 -4z"/>
<path d="M5303 2203 c9 -2 25 -2 35 0 9 3 1 5 -18 5 -19 0 -27 -2 -17 -5z"/>
<path d="M5385 2190 c3 -5 11 -10 16 -10 6 0 7 5 4 10 -3 6 -11 10 -16 10 -6 0 -7 -4 -4 -10z"/>
<path d="M5305 2180 c-4 -6 3 -10 14 -10 25 0 27 6 6 13 -8 4 -17 2 -20 -3z"/>
<path d="M5735 2171 c-3 -5 8 -18 25 -27 17 -11 30 -27 30 -39 1 -18 29 48 30 68 0 10 -78 9 -85 -2z"/>
<path d="M5095 2150 c-4 -6 7 -10 24 -10 17 0 31 5 31 10 0 6 -11 10 -24 10 -14 0 -28 -4 -31 -10z"/>
<path d="M5300 2150 c0 -5 7 -10 15 -10 8 0 15 5 15 10 0 6 -7 10 -15 10 -8 0 -15 -4 -15 -10z"/>
<path d="M5373 2153 c-19 -7 -15 -21 8 -28 11 -4 18 -9 15 -12 -3 -3 -1 -14 5 -24 6 -13 6 -19 0 -19 -6 0 -8 -7 -5 -15 8 -20 24 -19 24 1 0 8 5 12 10 9 6 -3 10 5 10 18 0 16 -10 31 -27 42 -26 17 -26 19 -8 26 20 7 20 8 0 8 -11 -1 -26 -3 -32 -6z"/>
<path d="M6016 2144 c-11 -29 -6 -34 34 -34 36 0 40 3 40 25 0 22 -4 25 -34 25 -22 0 -36 -6 -40 -16z"/>
<path d="M5007 2110 c-3 -12 0 -20 7 -20 6 0 12 9 12 20 0 11 -3 20 -7 20 -4 0 -9 -9 -12 -20z"/>
<path d="M5080 2121 c0 -8 110 -3 119 5 2 2 -23 4 -57 4 -34 0 -62 -4 -62 -9z"/>
<path d="M5218 2123 c6 -2 18 -2 25 0 6 3 1 5 -13 5 -14 0 -19 -2 -12 -5z"/>
<path d="M5293 2123 c9 -2 23 -2 30 0 6 3 -1 5 -18 5 -16 0 -22 -2 -12 -5z"/>
<path d="M5813 2095 c-7 -20 -5 -22 36 -27 28 -2 35 1 42 20 8 20 6 22 -32 22 -26 0 -42 -5 -46 -15z"/>
<path d="M5093 2093 c20 -2 54 -2 75 0 20 2 3 4 -38 4 -41 0 -58 -2 -37 -4z"/>
<path d="M5288 2093 c6 -2 18 -2 25 0 6 3 1 5 -13 5 -14 0 -19 -2 -12 -5z"/>
<path d="M5997 2080 c-3 -11 -1 -20 5 -20 5 0 2 -7 -6 -16 -28 -28 -20 -44 23 -44 30 0 40 4 44 20 4 15 0 20 -13 20 -11 0 -21 4 -24 9 -4 5 3 7 15 4 12 -4 25 0 30 8 18 28 10 39 -30 39 -30 0 -40 -4 -44 -20z"/>
<path d="M6095 2091 c-3 -2 -5 -13 -5 -23 0 -14 8 -18 35 -18 19 0 35 2 35 4 0 2 3 11 6 19 4 11 -4 16 -31 19 -19 2 -38 2 -40 -1z"/>
<path d="M5270 2069 c0 -5 9 -9 20 -9 11 0 20 2 20 4 0 2 -9 6 -20 9 -11 3 -20 1 -20 -4z"/>
<path d="M7068 2073 c7 -3 16 -2 19 1 4 3 -2 6 -13 5 -11 0 -14 -3 -6 -6z"/>
<path d="M5008 2063 c7 -3 16 -2 19 1 4 3 -2 6 -13 5 -11 0 -14 -3 -6 -6z"/>
<path d="M5083 2063 c9 -2 23 -2 30 0 6 3 -1 5 -18 5 -16 0 -22 -2 -12 -5z"/>
<path d="M5463 2008 c1 -38 5 -68 9 -68 11 0 9 90 -2 115 -7 14 -9 -1 -7 -47z"/>
<path d="M5810 2035 c0 -22 4 -25 35 -25 28 0 35 4 35 20 0 11 -3 20 -7 21 -5 0 -20 3 -35 5 -24 4 -28 1 -28 -21z"/>
<path d="M7048 2053 c6 -2 18 -2 25 0 6 3 1 5 -13 5 -14 0 -19 -2 -12 -5z"/>
<path d="M5055 2040 c-16 -7 -11 -9 20 -9 29 -1 36 2 25 9 -17 11 -19 11 -45 0z"/>
<path d="M5145 2040 c-4 -7 8 -8 37 -4 57 9 61 14 10 14 -22 0 -44 -5 -47 -10z"/>
<path d="M5260 2040 c0 -5 9 -10 20 -10 11 0 20 5 20 10 0 6 -9 10 -20 10 -11 0 -20 -4 -20 -10z"/>
<path d="M5746 2022 c1 -15 2 -45 3 -67 1 -34 3 -37 12 -21 6 10 9 36 6 58 -6 47 -24 72 -21 30z"/>
<path d="M5890 2030 c0 -11 6 -21 13 -21 55 -5 62 -3 65 19 3 20 -1 22 -37 22 -34 0 -41 -3 -41 -20z"/>
<path d="M4998 2033 c7 -3 16 -2 19 1 4 3 -2 6 -13 5 -11 0 -14 -3 -6 -6z"/>
<path d="M6076 2023 c-4 -9 -2 -20 4 -23 8 -5 6 -9 -4 -13 -9 -4 -16 -16 -16 -27 0 -18 5 -21 37 -18 27 2 39 8 41 21 2 10 -3 17 -12 17 -9 0 -16 4 -16 9 0 5 8 8 17 7 12 0 19 7 21 22 3 19 -1 22 -31 22 -23 0 -37 -6 -41 -17z"/>
<path d="M6977 2033 c18 -2 50 -2 70 0 21 2 7 4 -32 4 -38 0 -55 -2 -38 -4z"/>
<path d="M5348 2016 c-20 -15 -14 -26 15 -26 15 0 17 3 8 13 -6 8 -8 17 -4 20 11 12 -1 7 -19 -7z"/>
<path d="M5078 2013 c12 -2 32 -2 45 0 12 2 2 4 -23 4 -25 0 -35 -2 -22 -4z"/>
<path d="M5258 2013 c6 -2 18 -2 25 0 6 3 1 5 -13 5 -14 0 -19 -2 -12 -5z"/>
<path d="M5396 1997 c3 -10 9 -15 12 -12 3 3 0 11 -7 18 -10 9 -11 8 -5 -6z"/>
<path d="M5880 1992 c0 -6 -3 -17 -6 -26 -5 -13 1 -16 34 -16 28 0 42 5 46 16 8 21 8 21 -36 29 -24 5 -38 3 -38 -3z"/>
<path d="M6908 1993 c6 -2 18 -2 25 0 6 3 1 5 -13 5 -14 0 -19 -2 -12 -5z"/>
<path d="M4976 1980 c7 -7 19 -7 35 -1 23 9 22 10 -10 10 -24 1 -32 -2 -25 -9z"/>
<path d="M5078 1983 c23 -2 61 -2 85 0 23 2 4 4 -43 4 -47 0 -66 -2 -42 -4z"/>
<path d="M5258 1983 c7 -3 16 -2 19 1 4 3 -2 6 -13 5 -11 0 -14 -3 -6 -6z"/>
<path d="M5970 1971 c0 -13 9 -20 33 -24 31 -4 47 5 47 31 0 7 -15 12 -40 12 -33 0 -40 -4 -40 -19z"/>
<path d="M6805 1970 c-3 -5 -1 -10 4 -10 6 0 11 5 11 10 0 6 -2 10 -4 10 -3 0 -8 -4 -11 -10z"/>
<path d="M5135 1960 c-4 -6 12 -10 42 -9 36 0 43 3 28 9 -28 12 -63 12 -70 0z"/>
<path d="M5392 1943 c-22 -24 -22 -28 -8 -39 10 -7 14 -18 10 -29 -6 -14 -2 -16 22 -13 26 3 29 7 32 46 2 32 0 42 -12 42 -8 0 -16 4 -18 10 -1 5 -14 -3 -26 -17z"/>
<path d="M4983 1953 c15 -2 37 -2 50 0 12 2 0 4 -28 4 -27 0 -38 -2 -22 -4z"/>
<path d="M5083 1953 c9 -2 23 -2 30 0 6 3 -1 5 -18 5 -16 0 -22 -2 -12 -5z"/>
<path d="M5248 1953 c6 -2 18 -2 25 0 6 3 1 5 -13 5 -14 0 -19 -2 -12 -5z"/>
<path d="M5330 1952 c0 -5 7 -16 16 -23 14 -12 16 -11 13 5 -4 20 -29 35 -29 18z"/>
<path d="M6850 1935 c-7 -9 -8 -15 -2 -15 5 0 12 7 16 15 3 8 4 15 2 15 -2 0 -9 -7 -16 -15z"/>
<path d="M4980 1930 c-19 -6 -11 -8 33 -9 32 -1 57 3 57 9 0 12 -54 12 -90 0z"/>
<path d="M5095 1929 c-5 -7 11 -9 49 -7 31 2 56 6 56 10 0 12 -98 9 -105 -3z"/>
<path d="M5240 1930 c19 -13 30 -13 30 0 0 6 -10 10 -22 10 -19 0 -20 -2 -8 -10z"/>
<path d="M5960 1931 c0 -5 -3 -16 -6 -25 -5 -13 1 -16 34 -16 31 0 41 4 45 19 3 12 -1 22 -10 25 -23 9 -63 7 -63 -3z"/>
<path d="M4955 1900 c7 -12 84 -12 140 -1 33 7 23 9 -53 10 -60 1 -91 -3 -87 -9z"/>
<path d="M5148 1903 c7 -3 16 -2 19 1 4 3 -2 6 -13 5 -11 0 -14 -3 -6 -6z"/>
<path d="M5223 1903 c9 -2 23 -2 30 0 6 3 -1 5 -18 5 -16 0 -22 -2 -12 -5z"/>
<path d="M6858 1903 c7 -3 16 -2 19 1 4 3 -2 6 -13 5 -11 0 -14 -3 -6 -6z"/>
<path d="M6988 1903 c7 -3 16 -2 19 1 4 3 -2 6 -13 5 -11 0 -14 -3 -6 -6z"/>
<path d="M5645 1880 c3 -5 11 -10 16 -10 6 0 7 5 4 10 -3 6 -11 10 -16 10 -6 0 -7 -4 -4 -10z"/>
<path d="M6978 1883 c6 -2 18 -2 25 0 6 3 1 5 -13 5 -14 0 -19 -2 -12 -5z"/>
<path d="M5018 1873 c46 -2 118 -2 160 0 42 1 5 3 -83 3 -88 0 -123 -2 -77 -3z"/>
<path d="M6770 1855 c0 -8 4 -15 8 -15 5 0 9 7 9 15 0 8 -4 15 -9 15 -4 0 -8 -7 -8 -15z"/>
<path d="M6968 1863 c7 -3 16 -2 19 1 4 3 -2 6 -13 5 -11 0 -14 -3 -6 -6z"/>
<path d="M6968 1843 c7 -3 16 -2 19 1 4 3 -2 6 -13 5 -11 0 -14 -3 -6 -6z"/>
<path d="M4930 1820 c0 -5 7 -10 16 -10 8 0 12 5 9 10 -3 6 -10 10 -16 10 -5 0 -9 -4 -9 -10z"/>
<path d="M6942 1815 c-11 -13 -9 -15 15 -15 20 0 24 3 14 9 -11 7 -11 9 0 14 11 4 11 6 -1 6 -8 0 -21 -6 -28 -14z"/>
<path d="M5230 1780 c0 -5 5 -10 11 -10 5 0 7 5 4 10 -3 6 -8 10 -11 10 -2 0 -4 -4 -4 -10z"/>
<path d="M6858 1783 c7 -3 16 -2 19 1 4 3 -2 6 -13 5 -11 0 -14 -3 -6 -6z"/>
<path d="M6858 1743 c12 -2 32 -2 45 0 12 2 2 4 -23 4 -25 0 -35 -2 -22 -4z"/>
<path d="M5370 1670 c-25 -10 -83 -21 -130 -26 -47 -4 -77 -9 -67 -12 10 -2 16 -9 13 -15 -2 -7 -10 -29 -17 -49 -7 -21 -16 -38 -21 -38 -5 0 -6 -5 -3 -10 3 -6 -1 -17 -10 -26 -9 -9 -14 -18 -12 -21 10 -10 728 -40 817 -34 29 2 32 4 15 11 -18 8 -17 9 8 9 60 2 117 55 117 109 0 17 -11 20 -92 26 -50 3 -122 6 -160 6 -44 0 -67 4 -63 10 4 6 -13 10 -42 11 -26 1 -110 4 -186 8 l-139 6 22 28 c25 32 15 33 -50 7z"/>
<path d="M7000 1680 c8 -5 27 -10 42 -10 15 0 29 -4 32 -9 9 -14 -33 -21 -143 -21 -57 0 -101 -3 -97 -7 4 -5 77 -8 162 -8 161 0 187 8 122 38 -39 17 -141 32 -118 17z"/>
<path d="M6790 1671 c0 -12 36 -21 47 -11 4 5 17 10 28 13 11 3 -1 5 -27 6 -27 0 -48 -3 -48 -8z"/>
<path d="M6527 1513 c-13 -44 -14 -59 -4 -65 6 -4 16 -3 21 2 6 6 26 10 46 10 52 0 62 10 58 61 l-3 44 -51 3 -51 3 -16 -58z"/>
<path d="M6730 1566 c0 -2 7 -6 15 -10 8 -3 15 -1 15 4 0 6 -7 10 -15 10 -8 0 -15 -2 -15 -4z"/>
<path d="M4918 1543 c7 -3 16 -2 19 1 4 3 -2 6 -13 5 -11 0 -14 -3 -6 -6z"/>
<path d="M5063 1543 c9 -2 25 -2 35 0 9 3 1 5 -18 5 -19 0 -27 -2 -17 -5z"/>
<path d="M4944 1523 c7 -7 87 -5 95 3 2 2 -20 4 -49 4 -29 0 -50 -3 -46 -7z"/>
<path d="M4988 1493 c7 -3 16 -2 19 1 4 3 -2 6 -13 5 -11 0 -14 -3 -6 -6z"/>
<path d="M6738 1473 c12 -2 32 -2 45 0 12 2 2 4 -23 4 -25 0 -35 -2 -22 -4z"/>
<path d="M5015 1460 c44 -11 75 -11 75 0 0 6 -23 9 -52 9 -45 -1 -49 -2 -23 -9z"/>
<path d="M5080 1430 c-8 -5 -12 -12 -9 -15 4 -3 12 1 19 10 14 17 11 19 -10 5z"/>
<path d="M6745 1430 c28 -12 105 -12 105 0 0 6 -27 10 -62 9 -45 0 -57 -3 -43 -9z"/>
<path d="M6000 1405 c-19 -14 -27 -25 -19 -25 14 0 59 35 59 45 0 8 -5 6 -40 -20z"/>
<path d="M978 1403 c6 -2 9 -10 6 -15 -4 -7 -2 -8 5 -4 13 9 5 26 -12 25 -9 0 -8 -2 1 -6z"/>
<path d="M5893 1363 c-13 -2 -23 -8 -23 -13 0 -5 14 -5 31 0 55 16 50 24 -8 13z"/>
</g>
</svg>